<svg width="0" height="0">
    <symbol xmlns="http://www.w3.org/2000/svg" viewBox="0 0 24 24" id="user-smile-line"><path fill="none" d="M0 0h24v24H0z"/><path d="M12 22C6.477 22 2 17.523 2 12S6.477 2 12 2s10 4.477 10 10-4.477 10-10 10zm0-2a8 8 0 1 0 0-16 8 8 0 0 0 0 16zm-5-8h2a3 3 0 0 0 6 0h2a5 5 0 0 1-10 0z"/></symbol>

    <symbol xmlns="http://www.w3.org/2000/svg" id="mail" viewBox="0 0 24 24"><path d="M20 4H4c-1.103 0-2 .897-2 2v12c0 1.103.897 2 2 2h16c1.103 0 2-.897 2-2V6c0-1.103-.897-2-2-2zm0 2v.511l-8 6.223-8-6.222V6h16zM4 18V9.044l7.386 5.745a.994.994 0 0 0 1.228 0L20 9.044 20.002 18H4z"></path></symbol>

    <symbol xmlns="http://www.w3.org/2000/svg" viewBox="0 0 24 24" id="lock-line"><path fill="none" d="M0 0h24v24H0z"/><path d="M19 10h1a1 1 0 0 1 1 1v10a1 1 0 0 1-1 1H4a1 1 0 0 1-1-1V11a1 1 0 0 1 1-1h1V9a7 7 0 1 1 14 0v1zM5 12v8h14v-8H5zm6 2h2v4h-2v-4zm6-4V9A5 5 0 0 0 7 9v1h10z"/></symbol>

    <symbol xmlns="http://www.w3.org/2000/svg" viewBox="0 0 24 24" id="checkbox-circle-line"><path fill="none" d="M0 0h24v24H0z"/><path d="M12 22C6.477 22 2 17.523 2 12S6.477 2 12 2s10 4.477 10 10-4.477 10-10 10zm0-2a8 8 0 1 0 0-16 8 8 0 0 0 0 16zm-.997-4L6.76 11.757l1.414-1.414 2.829 2.829 5.656-5.657 1.415 1.414L11.003 16z"/></symbol>
</svg>